<svg xmlns="http://www.w3.org/2000/svg" viewBox="0 0 256 256" width="256" height="256">
  <rect width="256" height="256" rx="56" fill="#232F3E"/>
  <path fill="#FF9900" d="M62 174c34 18 77 28 122 6 3-2 7 3 3 5-50 26-98 18-131 1-4-2-1-8 6-12z"/>
  <path fill="#FF9900" d="M181 168c9 0 20 3 26 8 5 4 1 9-4 8-7-2-16-5-27-5-4 0-5-8 5-11z"/>
  <path fill="#fff" d="M78 117c0-19 14-31 33-31 13 0 22 6 27 14l-11 7c-4-6-10-10-16-10-11 0-18 8-18 20s7 20 18 20c7 0 12-3 16-9l11 7c-5 8-14 14-27 14-19 0-33-12-33-31zm105 30h-13v-7c-3 5-10 9-18 9-14 0-24-8-24-24V88h14v32c0 8 5 12 12 12 9 0 15-6 15-16V88h14v59z"/>
</svg>

