<svg xmlns="http://www.w3.org/2000/svg" viewBox="0 0 256 256" width="256" height="256">
  <rect width="256" height="256" rx="56" fill="#0D1117"/>
  <path fill="#fff" d="M128 52c-42 0-76 34-76 76 0 33 21 61 50 71 4 1 6-2 6-4v-17c-20 5-25-9-25-9-4-10-9-13-9-13-7-5 1-5 1-5 8 1 12 9 12 9 7 12 18 8 22 6 1-5 3-8 4-9-16-2-33-8-33-36 0-8 3-15 8-20-1-2-3-10 1-21 0 0 6-2 21 8 6-2 12-3 18-3s12 1 18 3c15-10 21-8 21-8 4 11 2 19 1 21 5 5 8 12 8 20 0 28-17 34-33 36 3 2 5 7 5 14v21c0 2 2 5 6 4 29-10 50-38 50-71 0-42-34-76-76-76z"/>
</svg>

