<svg viewBox="0 0 256 256" xmlns="http://www.w3.org/2000/svg" width="256" height="256">
  <rect width="256" height="256" rx="56" fill="#1877F2"/>
  <path d="M160.9 177.5c-11.6 0-20-7.8-32.9-28.4-14.5 21.4-23.1 28.4-35.3 28.4-19.9 0-33.9-22.8-33.9-49.6 0-25.5 12.6-49.8 33.3-49.8 12.3 0 20.9 7.4 35.7 30.4 14.1-22.6 22.5-30.4 34.9-30.4 20.5 0 34.5 24.1 34.5 49.8 0 27-14.6 49.6-36.3 49.6zm-71.2-83.2c-8.7 0-15.8 14.3-15.8 33.6 0 18.9 7.6 33.1 16.1 33.1 7.2 0 13.7-7.1 27.7-28.5-13.5-21.9-20.3-38.2-28-38.2zm71.8 0c-7.1 0-13.7 7.2-27.2 28.5 13.4 21.9 20 38.2 27.7 38.2 9.2 0 16.6-14.2 16.6-33.1 0-19.1-7.8-33.6-17.1-33.6z" fill="#fff"/>
</svg>

